<svg width="21" height="21" viewBox="0 0 21 21" fill="none" xmlns="http://www.w3.org/2000/svg">
<path d="M16.0557 20.5215C15.8611 20.5209 15.667 20.4996 15.4769 20.4578C11.8572 19.709 8.52252 17.9534 5.85661 15.393C3.2476 12.8269 1.43811 9.55979 0.647071 5.98686C0.553798 5.54157 0.576691 5.07977 0.713548 4.64588C0.850404 4.21199 1.09662 3.82063 1.4285 3.50944L3.74385 1.28091C3.86211 1.16907 4.00263 1.08343 4.15623 1.02957C4.30983 0.975711 4.47306 0.954847 4.63527 0.96834C4.80345 0.985886 4.96576 1.04007 5.11076 1.12707C5.25577 1.21407 5.37995 1.33178 5.47458 1.47193L8.36877 5.74954C8.4773 5.91552 8.5297 6.11195 8.51823 6.30993C8.50677 6.50791 8.43206 6.69699 8.3051 6.84933L6.85221 8.58585C7.43085 9.8665 8.25031 11.024 9.26597 11.9952C10.2751 13.0017 11.4678 13.8053 12.7795 14.3626L14.5797 12.9329C14.7309 12.8134 14.9149 12.7428 15.1072 12.7304C15.2995 12.718 15.491 12.7644 15.6563 12.8635L20.0266 15.6882C20.1765 15.7777 20.3043 15.9001 20.4003 16.046C20.4963 16.1919 20.558 16.3577 20.5808 16.5309C20.6037 16.704 20.587 16.8801 20.5321 17.0459C20.4772 17.2118 20.3855 17.363 20.2639 17.4884L18.0064 19.7227C17.75 19.9779 17.4456 20.1798 17.1109 20.3169C16.7761 20.454 16.4175 20.5235 16.0557 20.5215V20.5215ZM4.54265 2.11444L2.2273 4.34296C2.0406 4.51693 1.90239 4.73651 1.82627 4.98008C1.75015 5.22366 1.73875 5.48285 1.79317 5.73218C2.52871 9.08488 4.2195 12.1528 6.6612 14.5652C9.17 16.9741 12.3081 18.6254 15.7142 19.3291C15.972 19.383 16.2392 19.3721 16.4918 19.2973C16.7443 19.2225 16.9744 19.0863 17.1613 18.9007L19.4188 16.6664L15.1991 13.9401L13.2657 15.4798C13.1917 15.5384 13.1045 15.578 13.0117 15.5951C12.9189 15.6123 12.8233 15.6065 12.7332 15.5782C11.1279 14.9867 9.67316 14.0479 8.47296 12.8287C7.23156 11.6694 6.26795 10.2448 5.65402 8.6611C5.62805 8.56522 5.62718 8.46427 5.65151 8.36797C5.67584 8.27166 5.72455 8.18324 5.79294 8.1112L7.3558 6.24155L4.54265 2.11444Z" fill="white"/>
</svg>
